<svg width="16" height="13" viewBox="0 0 16 13" fill="none" xmlns="http://www.w3.org/2000/svg">
<path d="M9.00427 1.5994L9.00525 1.59838C10.4129 0.133872 12.6853 0.133872 14.0929 1.59838C15.4555 3.01942 15.516 5.30963 14.228 6.80724C12.4518 8.85907 10.4986 10.7365 8.39319 12.4161C8.25124 12.528 8.06032 12.528 7.91837 12.4161C5.81357 10.7357 3.86044 8.85821 2.08344 6.80709C0.795453 5.30941 0.856117 3.01916 2.21879 1.59818C3.62638 0.133917 5.89858 0.133938 7.30615 1.59825C7.30619 1.59829 7.30623 1.59834 7.30627 1.59838L7.79359 2.10576L8.15305 2.48003L8.51371 2.10691L9.00427 1.5994Z" stroke="#222222"/>
</svg>
